/* XPM */
static char *_c9e40e6415942ecaf26e124188f0356jvKhouZuI4Z5fWJ4[] = {
/* columns rows colors chars-per-pixel */
"32 32 13 1 ",
"  c #59AB5E",
". c #59AC5F",
"X c #59AD5F",
"o c #5BAF61",
"O c #5CB062",
"+ c #5EB363",
"@ c #5EB463",
"# c #5FB665",
"$ c #60B764",
"% c #61B766",
"& c #62BA67",
"* c #62BB67",
"= c #63BA68",
/* pixels */
"&&&%&&&%=&&%=&&%=&&&=&&=&&&&&=&&",
"%%&&&&&&%&&&%&&&&&=%%&&%&&=%&%=%",
"+&&&&%&&&&&&=&&&&&&&&&&&&&&&&&&&",
"o&&@++&&&&&&&&&&&&&&&&&&&&&&&&=%",
" +%+ +=&%=&&&&&&&&&&&&&&&&&&&&%=",
" o+ o%&&&&&&&&&&&&&&&&&&&&&&&&%&",
"#@#+#&&&&&&&&&&&&&&&&&&&&&&&&&=&",
"&&&&&&&&&&&&&&&&&&&&&&&&&&&&&&=%",
"&&&&&&&&&&&&&&&&&&&&&&&&&&&&&&&%",
"&&#&&&&&&&&&&&&&&&&&&&&&&&&&&&&=",
"&&=&&&&&&&&&&&&&&&&&&&&&&&&&&&%=",
"&&&&&&&&&&&&&&&&&&&&&&&&&&&&&=%&",
"&&&&&&&&&&&&&&&&&&&&&&&&&&&&&&&&",
"&&&&&&&&&&&&&&&&&&&&&&&&&&&&&&=%",
"&&&&&&&&&&&&%&&&&&&&&&&&&&&&&&&%",
"&&&&&&&&&&&&=&&&&&&&&&&&&&&&&&&=",
"&&&&&&&&&==%%&&&&&&&&&&&&&&&&&&&",
"&&&&&&@.o#&+o+&&&&&&&&&&&&&&&&%&",
"%&%+@%&.o&+ o+%&&&&&&&&&&&&&&&&&",
"&&%+..++ +o #&&&&&&&&&&&&&&&&&=%",
"&&&%oo#++#+@&&&&&&&&&&&&&&&&&&&%",
"&%&&%%&&&&&&&&%&&&&&&&%&&&&&&&&=",
"&&%&&&&&&&&&&&&&&&&=&@o@%&&&&%%=",
"&&&&%&&&&&&%&&&&&&&%&#.o%&@o+%&&",
"&&&&&&&&&&&&&&&&&#@O+&+.+#..+#&&",
"&&&&&&&&&&&&&&&&*&@. +%.+o +&&&&",
"&&&&&&&&&&&&&&&&*&&@O+%+%+++&&%&",
"&&&&&&&&&&&&&&&&&&&&##&%&%&&&%&&",
"&&&&&&&&&&&&&&&&&&&&&&&&&=&&&&&&",
"&&&&&&&&&&&&&&&&&&&&&&&&&%&&&&&%",
"&&&&&&&&&&&&&&&&&&&&&&&&&&&&&&&%",
"&&&&&&&&&&&&&&&&&&&&&&&&&&&&&&&="
};
