/* XPM */
static char *_a11aa6b0d1f4b599d672d18ba7f531ckbaSpPH4Whckju1Z[] = {
/* columns rows colors chars-per-pixel */
"16 16 135 2 ",
"   c None",
".  c #000047",
"X  c #000752",
"o  c #003D7A",
"O  c #005571",
"+  c #0C5C8F",
"@  c #2A5285",
"#  c #385F97",
"$  c #0058B5",
"%  c #2E5EA7",
"&  c #2B59AA",
"*  c #345FAF",
"=  c #305CBA",
"-  c #0069B9",
";  c #2364B5",
":  c #4C7A8D",
">  c #55759D",
",  c #557BBD",
"<  c #005DCB",
"1  c #0066C1",
"2  c #006BCC",
"3  c #006FCC",
"4  c #0C76C9",
"5  c #2D6BCC",
"6  c #3A6DC0",
"7  c #3C76C4",
"8  c #3772DD",
"9  c #007BEE",
"0  c #006DFC",
"q  c #2979EB",
"w  c #367CEB",
"e  c #3978E9",
"r  c #3A7EEB",
"t  c #3C7CEB",
"y  c #3D7BED",
"u  c #397DF5",
"i  c #4E7BC1",
"p  c #4B78C7",
"a  c #427FED",
"s  c #4F88AA",
"d  c #6184B6",
"f  c #0D88C1",
"g  c #0081CF",
"h  c #008BD5",
"j  c #3583C1",
"k  c #3595CA",
"l  c #4487C6",
"z  c #5C84C5",
"x  c #578BCA",
"c  c #5694CC",
"v  c #5696CD",
"b  c #5199CD",
"n  c #468DD4",
"m  c #6D97CA",
"M  c #6D9AD1",
"N  c #6E9DD3",
"B  c #769FDB",
"V  c #5BA0D6",
"C  c #5CA0D6",
"Z  c #56AFDC",
"A  c #6BA4CB",
"S  c #6FA0D3",
"D  c #7FA0D0",
"F  c #4D8AE0",
"G  c #508DE1",
"H  c #5892E4",
"J  c #498BFF",
"K  c #498FFF",
"L  c #4E92FF",
"P  c #41A7E3",
"I  c #53A5E1",
"U  c #58AFE0",
"Y  c #75A7E6",
"T  c #73ABE9",
"R  c #69B3E1",
"E  c #6CB8E6",
"W  c #7EB8ED",
"Q  c #74C7F0",
"!  c #75C8F7",
"~  c #7DCDFF",
"^  c #7CD3FD",
"/  c #87A8CB",
"(  c #9DB0CC",
")  c #9CB6CD",
"_  c #80A4D1",
"`  c #86AAD9",
"'  c #94ADD8",
"]  c #86B6D6",
"[  c #8AB3D2",
"{  c #85B4DF",
"}  c #8BB1DD",
"|  c #9CBCD3",
" . c #94B8DF",
".. c #94BCDC",
"X. c #BCBFCB",
"o. c #BEBECA",
"O. c #B3B8D0",
"+. c #819AE7",
"@. c #80AAE5",
"#. c #92B1E2",
"$. c #95BAEF",
"%. c #9CBDED",
"&. c #89B9F7",
"*. c #80B9FF",
"=. c #A0BCFD",
"-. c #B4C4DE",
";. c #9BC7F0",
":. c #99C9F0",
">. c #92C9FF",
",. c #9ED4F7",
"<. c #9ED8FA",
"1. c #B0D2EE",
"2. c #BBCEF4",
"3. c #A6D0F5",
"4. c #A6D2F5",
"5. c #AAD3F5",
"6. c #A3D3FF",
"7. c #ABD7FA",
"8. c #AADAFF",
"9. c #B3D7F4",
"0. c #88E1FF",
"q. c #8DE1FF",
"w. c #9DE1FF",
"e. c #A9EEFF",
"r. c #AAEEFF",
"t. c #BBE0F6",
"y. c #B7E6FF",
"u. c #C1CDD8",
"i. c #C5D1DA",
"p. c #C7D8EE",
"a. c #C3D9F4",
"s. c #DDEEFD",
"d. c #E0F1FF",
"f. c #EAF2FF",
"g. c white",
/* pixels */
"                                ",
"                                ",
"        Q w.5.4.4.7.:.c         ",
"      = v R C E E V U !  .      ",
"    G F H W <.r.r.,.1.y.>.      ",
"    p 2 2.9.S N M { d.+.0 y     ",
"    n 3 O.D ( o.X.m %.> ;       ",
"    f - ` 7 =.g.f.$ ' d 4 t     ",
"    k j @.x l #.Y + / z h r     ",
"    Z b B T : . O s A i g w     ",
"    0.I $.t.) u.[ i.s., P       ",
"    ~ *.;.} ..| ] -.p.a.q.^     ",
"    8.6.& q 1 X o 9 < _ &.      ",
"      * 8 K a # 6 J L 5         ",
"          u   @ %   e           ",
"                                "
};
