/* XPM */
static char *Rock21669646670[] = {
/* columns rows colors chars-per-pixel */
"32 32 119 2 ",
"   c None",
".  c black",
"X  c #03001C",
"o  c #000026",
"O  c #0D0321",
"+  c #181225",
"@  c #14112D",
"#  c #1B162C",
"$  c #1D1A2D",
"%  c #000032",
"&  c #000439",
"*  c #040C3B",
"=  c #0A0E38",
"-  c #191734",
";  c #1D1D36",
":  c #10163E",
">  c #1E1D39",
",  c #201F34",
"<  c #23233D",
"1  c #141B41",
"2  c #242540",
"3  c #252945",
"4  c #202648",
"5  c #262C4C",
"6  c #292E4C",
"7  c #2D334D",
"8  c #31354C",
"9  c #35384E",
"0  c #393D4F",
"q  c #2C3351",
"w  c #323855",
"e  c #3C3E51",
"r  c #3D435C",
"t  c #3F4660",
"y  c #41475C",
"u  c #474B5E",
"i  c #484C5F",
"p  c #53545E",
"a  c #474E67",
"s  c #494E62",
"d  c #484F69",
"f  c #4B526B",
"g  c #575963",
"h  c #595A63",
"j  c #545A6E",
"k  c #4F5770",
"l  c #555D74",
"z  c #5F616D",
"x  c #5D6275",
"c  c #5C647D",
"v  c #666871",
"b  c #696B74",
"n  c #6F727E",
"m  c #5F6880",
"M  c #676F86",
"N  c #636F8D",
"B  c #6B738A",
"V  c #767880",
"C  c #787A83",
"Z  c #6C7791",
"A  c #6D7892",
"S  c #7F828B",
"D  c #778096",
"F  c #768099",
"G  c #79839A",
"H  c #7D8AA7",
"J  c #838EA9",
"K  c #8691AB",
"L  c #8995AE",
"P  c #9B9EA6",
"I  c #8693B2",
"U  c #8B97B1",
"Y  c #8D99B4",
"T  c #8F9CB9",
"R  c #919DB7",
"E  c #919EB8",
"W  c #9DA0A7",
"Q  c #96A2BC",
"!  c #9AA6BE",
"~  c #9EA8BE",
"^  c #A3A6AF",
"/  c #A0AABE",
"(  c #AFB3BA",
")  c #B2B7BE",
"_  c #9BA7C1",
"`  c #9EAAC4",
"'  c #9FACC8",
"]  c #A3ADC3",
"[  c #A0ADC8",
"{  c #A6B0C5",
"}  c #A9B2C6",
"|  c #A7B2C8",
" . c #ACB6C9",
".. c #AFB8CA",
"X. c #B3BBCC",
"o. c #AEB8D0",
"O. c #BCC2CC",
"+. c #B9C1D1",
"@. c #C1C6CF",
"#. c #C2C9D6",
"$. c #CBCFD6",
"%. c #C4CCD9",
"&. c #C8CFDB",
"*. c #CCD1D6",
"=. c #CDD3DD",
"-. c #D3D7DE",
";. c #D3D8DF",
":. c #CDD4E1",
">. c #D1D7E1",
",. c #D4DAE2",
"<. c #D8DDE5",
"1. c #DBE0E7",
"2. c #DDE2E9",
"3. c #E1E6EC",
"4. c #E5E9EF",
"5. c #E6EBF2",
"6. c #E8ECF1",
"7. c #EBF0F7",
"8. c #ECF2F9",
/* pixels */
"                                                                ",
"                                                                ",
"                        . . . . . .                             ",
"                        b S C C S b                             ",
"                    . p ) ;.$.$.-.) h . . . . .                 ",
"                    p ^ <.8.5.6.8.,.P v V n x r                 ",
"                . p ( <.1.2.3.2.3.1.-.*.*.O.Q N 7 . X <         ",
"                p ^ <.7.3.2.2.1.2.2.<.2.5.2.%.! B 9 < X         ",
"            . p ( <.1.3.2.2.2.3.5.,...} ,.3.2.&./ A 9 .         ",
"            p ^ <.7.3.1.2.2.2.1.<.%.] ..,.2.2.&. .L M e         ",
"        . p ( <.1.3.2.2.2.2.3.,.X.} %.,.2.,.X.] _ E Y G i .     ",
"        p ^ <.7.3.2.2.2.2.2.3.=.! ~ ,.6.5.:.] I E Q ' Y l .     ",
"    . b ) <.1.3.2.2.2.2.2.2.4.,.` / ,.6.6.,.{ Y ! _ [ L j .     ",
"    . S -.8.3.2.2.2.2.2.2.1.,.#.! ~ %.,.,.%.] Y K J L G s .     ",
"    . C $.5.2.2.2.2.3.3.4.>.X.Q Y E ] } | [ _ K c r l f 8 O     ",
"    . C $.5.2.2.2.1.,.,.2.,...! } ] E U Y T ! L m q 1 % - $     ",
"    . J >.8.3.2.4.,.X...,.2.,.>.<.&.[ Y Q ! Q R U A d % - #     ",
"    . b ) ,.2.2.<.#.Q ! =.4.4.3.2.&.] Y J J R _ ] R l % > #     ",
"        h P ,.2.+.! Y | ,.6.6.<.O.` _ K c M Y ] [ Y l % > #     ",
"        . z @.:.` I U [ %.,.,.%._ I _ K r w A Y U G f % - #     ",
"        . x / ..! R R ! | ..} ] Q E ' L f 1 a l l d 9 @         ",
"        . y Z U R Q Q R H H I E Q E Y G f * * & & = - $         ",
"            9 B Y [ ' Y M c L ' ' Y B t w 5 5 5 6 5 2 #         ",
"            . 0 D R R A w w A U U G r o 4 7 6 5 6 3 > #         ",
"                u l l f q q d l l d w 4 6 7 2 < 2 >             ",
"                . . o : 5 7 1 & & 1 3 7 6 3 ; + # #             ",
"                    @ 2 7 q 5 5 5 5 2 < 2 >                     ",
"                    + ; 3 6 5 6 6 3 ; + # #                     ",
"                        , 2 < < 2 ;                             ",
"                        # # # # # #                             ",
"                                                                ",
"                                                                "
};
