/* XPM */
static char *_d8f8de58f7245728726899b5e58c0f8KvNMZnGjQo4hXfLK[] = {
/* columns rows colors chars-per-pixel */
"32 32 226 2 ",
"   c #030201",
".  c #0B0101",
"X  c #040A04",
"o  c #0B0C02",
"O  c #0F0509",
"+  c #050809",
"@  c #0A080B",
"#  c #140100",
"$  c #1A0201",
"%  c #130A02",
"&  c #1D0C03",
"*  c #160A09",
"=  c #1A1209",
"-  c #151105",
";  c #110E14",
":  c #111413",
">  c #0C0C14",
",  c #220201",
"<  c #2A0201",
"1  c #230B02",
"2  c #2B0B03",
"3  c #240B0B",
"4  c #2C0C0D",
"5  c #330300",
"6  c #3A0400",
"7  c #340B01",
"8  c #3D0B01",
"9  c #261103",
"0  c #2A1404",
"q  c #23110D",
"w  c #2D120D",
"e  c #2A1A0D",
"r  c #321503",
"t  c #331309",
"y  c #391609",
"u  c #2C0C16",
"i  c #290F1A",
"p  c #310C14",
"a  c #381714",
"s  c #271918",
"d  c #2B200E",
"f  c #3F2705",
"g  c #2B201C",
"h  c #392717",
"j  c #392728",
"k  c #471808",
"l  c #4D2105",
"z  c #4E2903",
"x  c #482409",
"c  c #542E0E",
"v  c #592C0F",
"b  c #54320C",
"n  c #513007",
"m  c #482314",
"M  c #442E16",
"N  c #492A13",
"B  c #41291D",
"V  c #542D13",
"C  c #592D15",
"Z  c #542C1B",
"A  c #582B1B",
"S  c #56251E",
"D  c #4A321D",
"F  c #46351B",
"G  c #5B3413",
"H  c #5C3919",
"J  c #623D1B",
"K  c #4C2D24",
"L  c #482F28",
"P  c #47362A",
"I  c #5D3425",
"U  c #5C3B24",
"Y  c #5B332B",
"T  c #5D3B2D",
"R  c #513527",
"E  c #5A3D32",
"W  c #533C38",
"Q  c #5C2B24",
"!  c #612C26",
"~  c #653D26",
"^  c #633C2C",
"/  c #653828",
"(  c #723E2D",
")  c #643B32",
"_  c #6B3D33",
"`  c #633E3A",
"'  c #693730",
"]  c #66441E",
"[  c #6B491E",
"{  c #5F4429",
"}  c #4B4233",
"|  c #554334",
" . c #5E4137",
".. c #5E4C34",
"X. c #5E433A",
"o. c #554A39",
"O. c #654424",
"+. c #6A4424",
"@. c #6C4923",
"#. c #65432B",
"$. c #6B432B",
"%. c #684A28",
"&. c #734A26",
"*. c #724D2D",
"=. c #71452E",
"-. c #72522C",
";. c #745127",
":. c #644535",
">. c #6C4433",
",. c #664937",
"<. c #694A34",
"1. c #65443D",
"2. c #6B443B",
"3. c #654A3D",
"4. c #6B4A3B",
"5. c #724435",
"6. c #7A4537",
"7. c #724D33",
"8. c #73453A",
"9. c #7B463C",
"0. c #734B3C",
"q. c #784B38",
"w. c #6F5333",
"e. c #6E593A",
"r. c #755332",
"t. c #77523D",
"y. c #7C5739",
"u. c #603D44",
"i. c #585045",
"p. c #5B4A43",
"a. c #6A4643",
"s. c #6B4E49",
"d. c #6A4945",
"f. c #734F43",
"g. c #704848",
"h. c #695447",
"j. c #735141",
"k. c #7B5A41",
"l. c #74544C",
"z. c #775747",
"x. c #7D5F54",
"c. c #786452",
"v. c #82653D",
"b. c #80554A",
"n. c #865C49",
"m. c #88654B",
"M. c #946E4C",
"N. c #976A4A",
"B. c #8D7149",
"V. c #93724D",
"C. c #9C714F",
"Z. c #8D6C54",
"A. c #8B6A57",
"S. c #936A54",
"D. c #996C54",
"F. c #92685A",
"G. c #94685A",
"H. c #87725F",
"J. c #957252",
"K. c #93745C",
"L. c #8B6F63",
"P. c #9C7F6D",
"I. c #8A776A",
"U. c #97877E",
"Y. c #AD8B7B",
"T. c #B48C72",
"R. c #A7917C",
"E. c #B59372",
"W. c #BC9573",
"Q. c #BB957C",
"!. c #BC9C7C",
"~. c #B4997E",
"^. c #BEA07A",
"/. c #C39C7E",
"(. c #C1A37F",
"). c #96968A",
"_. c #A18881",
"`. c #B48D8A",
"'. c #AC9B8B",
"]. c #A89587",
"[. c #B49A83",
"{. c #BA9C85",
"}. c #BA9B8D",
"|. c #B89689",
" X c #A89C93",
".X c #BB9895",
"XX c #BEA28B",
"oX c #A6A397",
"OX c #BBA592",
"+X c #B2A29B",
"@X c #B8A499",
"#X c #B1AAA2",
"$X c #C39C82",
"%X c #C29A86",
"&X c #C09F90",
"*X c #CCAB85",
"=X c #CBA58C",
"-X c #C9AA85",
";X c #D2AD8B",
":X c #CEB18B",
">X c #D2B28B",
",X c #D8B58F",
"<X c #C4AB94",
"1X c #C8AB98",
"2X c #D4AE93",
"3X c #D8AC96",
"4X c #DBAE9C",
"5X c #D3A996",
"6X c #CAB39A",
"7X c #D4B194",
"8X c #D9B495",
"9X c #DDB198",
"0X c #D1B89C",
"qX c #C3ACA4",
"wX c #CCA9A5",
"eX c #C4B3AD",
"rX c #CBB5A6",
"tX c #CFB8B0",
"yX c #D2BCB1",
"uX c #D4BAA1",
"iX c #D4C5B7",
"pX c #D3C2B2",
"aX c #E6CABE",
"sX c #DCCBC1",
"dX c #DFD2C9",
"fX c #E3C9C8",
/* pixels */
"% . 1 1 $ 5 k 5 7 7 7 7 7 7 5 5 k 6 6 6 6 6 6 5 5 7 r $ 2 3 # i ",
". % I.L.Z / / $.$.O.O.#.>.>.>.2.( ( ( 6.6.6.( ( ~ t.#.0 l.U.j # ",
"% . ].].A.&X/.3X8X7X7X7X5X4X4X4X9X9X4X4X3X=X$X/.W.E.{.K.}._.# # ",
". o rXOX^ t.H +.] { %.O.O.#.#.~ $.+.~ ( =.5.=.$.+.%.y.w.<XrX3 # ",
". % '.<XF.!.{./.W.^.(.:X:X7X7X;X;X;X;X2X3X8X2X;X8X:X-XB.XX'.1 q ",
". d '.[.#.=.=.J r.v.B.B.B.J.C.N.M.M.J.J.m.n.7.+.@.] w.%.~.[.2 $ ",
"% & c.Z.k.T.(.W.^.*X>X:X*X>X;X*X*X*X>X7X7X=X/.W.W.,X(.-.m.K.y 1 ",
"# 0 U.m.k G l v b ] @.] ] &.&.&.&.@.@.+.+.J C c G z z G K.S.7 , ",
"1 y { I q.G.m.D.N.V.M.V.N.N.N.M.N.V.M.S.S.D.D.D.N.C.N.y.+.5.< < ",
"# $ n.b.5 7 k 8 C V N c c v v v b V V V A A A C C l 5 $ ~ b.7 , ",
"h 2 E ) Q n.G.S.A.Z.Z.S.Z.S.D.S.M.Z.F.F.G.G.G.S.n.n.M.$.f.^ 7 , ",
"# 2 3.2.) 8._ f.4.,.<.<.>.>.5.5.>.>.>.2.a.2.2.8.k.5.>.m 4.:.2 , ",
"$ $ :.a.K 1.1.E 3.a.3.X.d.3.2.a.,.,.3.3.a.a.a.u.E z.:.D 3.X.# q ",
". # P L w w 1 3 & & & = & 1 1 2 1 1 1 1 3 3 3 3 w & 9 a e P % . ",
"= . & # # $ # . . o . . o # # # # . # # # O # # # . % o . =   . ",
"o %  X+X& . s .     . . . . . . .   . . .   O . . g . + tX#X- . ",
"& # '. X. O O . +     + X       X X   X +   > + + O * . eXeX# $ ",
"1 w @X@X. . . O > >             X X X +     > ; + . . . eXtX9 $ ",
"# 1 ].].# # . % . . . . . * * . . . % % . . . . * # q & qXqX9 $ ",
"9 1 H.c.# # # . # # $ # $ # # # $ # # . . & . & . . # # c.I.# 1 ",
"$ 1 R.[.[.~.<X[.=X{.|.}.|..X.XwX1X}.&XY.[.<X{.0X0XpXrX<X6XOX9 & ",
"# r ~.XX2X~.!.E.~.Q.{.{..X`.`.`.Y.{.&XQ.!./.E.*X(.:X:X0X<X@X9 % ",
", w 4.,.O.~ @.&.@.r.7.^ 2.l.l.a.2.t./ H *.@.[ ;.-.@.%.{ ,.l.1 # ",
"$ t T 4.$.y.J +.@.*.#.U x.qXfXyXfX0Xk.U -.@.@.[ [ ] y.#.0.E 4 $ ",
", , 4 7 5 < c z c N N h P +Xj o F iXh F f b n z n b k r < a $ $ ",
"p < g._ >.q.$.r.O.%.e.| } oX  X X iX....e.w.H -.[ &.4.0.a.g.p $ ",
"$ $ g.a.2.8.~ ~ k.{ 3.h.o.oX@ : X oXo.o.F { r.<.O.5.>.2.u.u.u * ",
"$ $ u 3 < < I I Z M D h P ).oX  ).oXh } { M m x A Z m a 4 p # O ",
". = W h.s.Y 0.I ' l.^ l.W dX. o o U.h.} E j.0.^ >.8._ 1.E W 3 * ",
".   o.| X.j.2.0._ b.) a.d.yXsX].oX'.h...2.^ _ 9.8.2.` s.s.p.*   ",
"X X } } E 1.Y ! ' ' S _ R R R K h m R 4.Q Q g.! _ ' Y E W } % o ",
"X   o % $ # y 5 < k k < 7 t , t 1 t 2 1 5 5 k 6 5 6 2 1 # % . o "
};
