/* XPM */
static char *_abe2943527e4cefa23fdd226adf8a48eXiiuHr3fhJbfQub[] = {
/* columns rows colors chars-per-pixel */
"25 25 207 2 ",
"   c #070000",
".  c #0D0000",
"X  c #0F0909",
"o  c #140101",
"O  c #1B0201",
"+  c #120D04",
"@  c #1D090B",
"#  c #180909",
"$  c #1E1109",
"%  c #2D0100",
"&  c #2C0D03",
"*  c #210C0A",
"=  c #280F08",
"-  c #200903",
";  c #340400",
":  c #3A0500",
">  c #3B0D00",
",  c #26140D",
"<  c #29170D",
"1  c #3E1507",
"2  c #3A160B",
"3  c #211211",
"4  c #2E1611",
"5  c #221A14",
"6  c #291B15",
"7  c #201718",
"8  c #3B1D15",
"9  c #3B1E1B",
"0  c #361913",
"q  c #272115",
"w  c #2A261B",
"e  c #31241B",
"r  c #2F2B20",
"t  c #3D362B",
"y  c #47190C",
"u  c #421E10",
"i  c #45231D",
"p  c #4A2716",
"a  c #52291D",
"s  c #523017",
"d  c #442B22",
"f  c #4B2E26",
"g  c #432E2A",
"h  c #4B2E2A",
"j  c #522E23",
"k  c #582E20",
"l  c #4C3225",
"z  c #4D352B",
"x  c #433428",
"c  c #533226",
"v  c #5B3D27",
"b  c #55352C",
"n  c #563B2E",
"m  c #5B3A2D",
"M  c #5A3727",
"N  c #4D3934",
"B  c #473836",
"V  c #533731",
"C  c #543B33",
"Z  c #5A3C33",
"A  c #5A3C39",
"S  c #5C3731",
"D  c #663A2C",
"F  c #623D33",
"G  c #4C4237",
"H  c #5D4235",
"J  c #54433A",
"K  c #5C413A",
"L  c #5E483C",
"P  c #564237",
"I  c #64432D",
"U  c #68442C",
"Y  c #6B4235",
"T  c #6E4C36",
"R  c #64453C",
"E  c #6D463A",
"W  c #644A3C",
"Q  c #6B4C3A",
"!  c #614031",
"~  c #744535",
"^  c #714D36",
"/  c #75483B",
"(  c #6E513F",
")  c #755236",
"_  c #74533B",
"`  c #7C5438",
"'  c #7B593E",
"]  c #5E4944",
"[  c #5B4A47",
"{  c #5B5348",
"}  c #5F5353",
"|  c #634B42",
" . c #6D4C42",
".. c #6B4C49",
"X. c #734D43",
"o. c #68544A",
"O. c #745444",
"+. c #7A5A45",
"@. c #755C4B",
"#. c #7B5C4A",
"$. c #785647",
"%. c #615858",
"&. c #7E5F53",
"*. c #7E624D",
"=. c #776050",
"-. c #76615E",
";. c #7E6757",
":. c #6F6C6B",
">. c #7D6A67",
",. c #7A6B6A",
"<. c #84563C",
"1. c #825939",
"2. c #8C613E",
"3. c #8D5F45",
"4. c #825F4B",
"5. c #8D5E4C",
"6. c #915F48",
"7. c #8C6342",
"8. c #8B654A",
"9. c #89664A",
"0. c #94624C",
"q. c #99624D",
"w. c #966B4A",
"e. c #946644",
"r. c #9D724F",
"t. c #8D6452",
"y. c #8E6B55",
"u. c #846559",
"i. c #936651",
"p. c #926E52",
"a. c #936D5F",
"s. c #9D6C5B",
"d. c #9B6952",
"f. c #8F735D",
"g. c #9D7654",
"h. c #9A755A",
"j. c #9C795C",
"k. c #947258",
"l. c #A1704F",
"z. c #A06A5C",
"x. c #A27755",
"c. c #A27856",
"v. c #A37B5A",
"b. c #AC7D5A",
"n. c #AB7B57",
"m. c #8D6D60",
"M. c #9D7B64",
"N. c #957E6E",
"B. c #867573",
"V. c #897C7B",
"C. c #987D75",
"Z. c #A37D64",
"A. c #A17769",
"S. c #A8805D",
"D. c #9A8376",
"F. c #90817E",
"G. c #A48165",
"H. c #AC8565",
"J. c #A5846B",
"K. c #AF8768",
"L. c #B08767",
"P. c #B68864",
"I. c #A68876",
"U. c #B48F74",
"Y. c #C4967B",
"T. c #CB9B7C",
"R. c #C49575",
"E. c #CEA27D",
"W. c #D2A47E",
"Q. c #8D8181",
"!. c #9E8983",
"~. c #9B8B8B",
"^. c #A18881",
"/. c #A1928F",
"(. c #B89A88",
"). c #A59796",
"_. c #B19B90",
"`. c #BDA196",
"'. c #ADA3A2",
"]. c #B9A8A6",
"[. c #BBB5B4",
"{. c #C79E86",
"}. c #D09A80",
"|. c #C4A185",
" X c #CDA584",
".X c #CCA48D",
"XX c #D3A683",
"oX c #D2A48C",
"OX c #DBAD8B",
"+X c #D3A98B",
"@X c #DDB18E",
"#X c #CDAC97",
"$X c #C6A798",
"%X c #D4A794",
"&X c #DAA593",
"*X c #D7A995",
"=X c #DBA895",
"-X c #DFB192",
";X c #DAB39A",
":X c #D6B197",
">X c #E1AF8E",
",X c #E0B48F",
"<X c #E3B492",
"1X c #E0B79A",
"2X c #C5AAA1",
"3X c #DDC1B3",
"4X c #EACEB9",
/* pixels */
"0 d O O % u % : : : : : ; ; % % ; ; > & O = t   X ",
"L D.u.a.m.M.t.z.z.z.z.z.s.s.s.s.A.d.t.a.u.^.>.. 7 ",
"L $XI.(.%X%X{.=X&X&X&X&X*X&X*X*X%X}..X#XC.2X!.# 7 ",
"W 2X#.4.y.i.q.d.q.q.q.6.6.5.5.8.<.<.) y./ `.!.. 3 ",
"*.4XI.|.;X+XXXT.T.T.T.T.R.R.Y.Y.T.T.Y..XM.3X_.O 6 ",
"I #XG.(.+X XXXOX>X>X>X>X-X-X-X-X<X<X1X:XM.`.D.. 6 ",
"_ Y.*.9.' ' w.S.n.n.n.n.b.b.b.b.l.e.2.p.y.(.D.. , ",
"p G.k.E. X XW.W.W.W.W.W. X XT.T.P.U.Y.U.k.f.=.o < ",
"s p.9. X;X X@X<X>X>X,X,X@X@XOX@XW.E.|.;XG.*.=.o , ",
"I y.I 9.p.2.w.c.r.l.c.c.c.c.c.g.2.2.7.9.T *.;.. < ",
"1 _ T M.U.G.S.G.S.H.L.L.H.H.H.L.S.S.G.J.*.W L . @ ",
"u O.Y u.G.j.M.J.j.j.j.j.j.h.h.h.j.g.G.J.O.P P o , ",
"i  .c ! Q Q T _ ) _ _ ) ^ ~ T ^ ) ) ) I c | ] . O ",
"2 R Z O.&.u._ O.O.+.+.+.+.#.4.4.' ' *.T n L N . 3 ",
"9 ..A R O.&.O.@.( ( ( (  ._ O.O.T I ' =.L P g * # ",
"4 A h h b R l n z z z l l f f c I c v i d | B o @ ",
"* e O O O O O o . #       o o O O O O O O O = . * ",
"t J L Z  .F  .A B } :.:.[ [ N K F R A | | A N * O ",
"q t P n X.F E A } ).[.[.[.F.N n W Y b Z K A g O o ",
"q G d Z c Z S V . Q.B X ).V.@ H F Z j c V V d o # ",
"t o.P W F X.X...[ ~.%.  Q.B.| A E X.X.O. .R z * @ ",
"+ e d 8 k a F b o /.,.X ).>.9 R a a j j d 8 4 . o ",
"w G | Z X./ 4...h 2X'.} /.&.h R / ~ D F ! A C 3 o ",
"r { A R D D F F A V.).B.,.-...m / ~ D E X.R g o 3 ",
"+ 5 < = 1 y 1 2 i + o . . O 9 0 y y y y > = 4 . o "
};
