/* XPM */
static char *_2243_2a83bf8a418c07f0c6404feefa53a6b62c8fd848de48ab5844acdbfc4ca14205[] = {
/* columns rows colors chars-per-pixel */
"25 25 215 2 ",
"   c #050100",
".  c #0C0101",
"X  c #120201",
"o  c #1C0201",
"O  c #120807",
"+  c #190D01",
"@  c #1A0C0B",
"#  c #151106",
"$  c #180F10",
"%  c #1C1314",
"&  c #191513",
"*  c #220100",
"=  c #2C0200",
"-  c #240A05",
";  c #24140F",
":  c #2C140F",
">  c #261C0F",
",  c #3C140A",
"<  c #36150B",
"1  c #2A1710",
"2  c #241D1C",
"3  c #2E1B1A",
"4  c #331C15",
"5  c #341D1A",
"6  c #3B1913",
"7  c #370C05",
"8  c #2C241E",
"9  c #2C2014",
"0  c #362212",
"q  c #36211B",
"w  c #3B241B",
"e  c #30291F",
"r  c #2F2B22",
"t  c #3B2523",
"y  c #372B23",
"u  c #3C2A26",
"i  c #3D342D",
"p  c #3B3125",
"a  c #4B1C16",
"s  c #5B390F",
"d  c #432B1D",
"f  c #492D1A",
"g  c #4B2915",
"h  c #562E1A",
"j  c #53331C",
"k  c #593519",
"l  c #622F1A",
"z  c #61321C",
"x  c #623F19",
"c  c #442B24",
"v  c #4A2F27",
"b  c #4D3222",
"n  c #46342D",
"m  c #4F342B",
"M  c #433125",
"N  c #543221",
"B  c #573926",
"V  c #5C3C25",
"C  c #51362A",
"Z  c #533A2B",
"A  c #5C3D2B",
"S  c #5D3325",
"D  c #5A3D34",
"F  c #543E3C",
"G  c #583C3A",
"H  c #473936",
"J  c #623A27",
"K  c #62362B",
"L  c #643F2E",
"P  c #663723",
"I  c #683E30",
"U  c #64411D",
"Y  c #5C402B",
"T  c #4F4239",
"R  c #5C4036",
"E  c #55433B",
"W  c #5B443A",
"Q  c #5A4B38",
"!  c #654327",
"~  c #67462A",
"^  c #604536",
"/  c #6D4133",
"(  c #6C4D32",
")  c #62473C",
"_  c #6C473D",
"`  c #64493C",
"'  c #6A4E3B",
"]  c #664B36",
"[  c #714634",
"{  c #714C34",
"}  c #784937",
"|  c #724439",
" . c #704B3B",
".. c #6D5036",
"X. c #785736",
"o. c #75563A",
"O. c #795639",
"+. c #785B3B",
"@. c #594744",
"#. c #644B43",
"$. c #664943",
"%. c #744E42",
"&. c #655447",
"*. c #64554F",
"=. c #695349",
"-. c #7B5442",
";. c #7C5C43",
":. c #75574B",
">. c #745A4C",
",. c #795D4B",
"<. c #745B47",
"1. c #6C5F56",
"2. c #6A5953",
"3. c #745E55",
"4. c #7C5E51",
"5. c #715F5D",
"6. c #7D614C",
"7. c #6C635C",
"8. c #6E685C",
"9. c #736253",
"0. c #7E6453",
"q. c #716857",
"w. c #746B5F",
"e. c #7F685A",
"r. c #6F6A66",
"t. c #7B6E63",
"y. c #746C69",
"u. c #776966",
"i. c #7F776E",
"p. c #7D7663",
"a. c #815F2F",
"s. c #86543E",
"d. c #805F34",
"f. c #836237",
"g. c #875843",
"h. c #81634D",
"j. c #89664C",
"k. c #8A6F54",
"l. c #866A5B",
"z. c #846658",
"x. c #96695B",
"c. c #926A51",
"v. c #84705E",
"b. c #897159",
"n. c #987057",
"m. c #93795D",
"M. c #977559",
"N. c #A1745F",
"B. c #856F61",
"V. c #8A6761",
"C. c #8E776D",
"Z. c #837A6A",
"A. c #887364",
"S. c #9A7561",
"D. c #977B62",
"F. c #9A7F65",
"G. c #9C7F69",
"H. c #837673",
"J. c #8A7B73",
"K. c #887F7A",
"L. c #907F75",
"P. c #A37F68",
"I. c #A47E72",
"U. c #A87E70",
"Y. c #9D8166",
"T. c #8F8375",
"R. c #96847A",
"E. c #A28363",
"W. c #A88765",
"Q. c #A68864",
"!. c #AA846A",
"~. c #A78A68",
"^. c #A5886E",
"/. c #B0946F",
"(. c #AC8E7B",
"). c #AC8974",
"_. c #B88F79",
"`. c #B48B78",
"'. c #AF9272",
"]. c #AA907F",
"[. c #B39374",
"{. c #B5917B",
"}. c #B0987E",
"|. c #BB947C",
" X c #9D978B",
".X c #AF8D83",
"XX c #B58D89",
"oX c #A69182",
"OX c #A99C8E",
"+X c #A69788",
"@X c #AA9C93",
"#X c #B39F91",
"$X c #B59A85",
"%X c #BFA785",
"&X c #ADA29C",
"*X c #B4A394",
"=X c #B8A698",
"-X c #B9A698",
";X c #B3ADA1",
":X c #BEB1A1",
">X c #C59887",
",X c #C4A18E",
"<X c #CBA28E",
"1X c #C8B188",
"2X c #C0A791",
"3X c #C7A997",
"4X c #C7B29D",
"5X c #D3BB99",
"6X c #C5AFA4",
"7X c #CDB9A6",
"8X c #C3B3A4",
"9X c #CBBEB8",
"0X c #DFCAAF",
"qX c #DCCFC7",
"wX c #DBD2CB",
/* pixels */
"X t n X + * X X X o o o o o * * = * = = = X d n O ",
"X *.R.3.Z.oX$X$X).(.(..X.XXXXXXXXX`.U.S.D.<.T.7.  ",
"o C.6XV.A.Y.m.m.Y.Y.G.G.I.I.I.I.x.x.x.M.Y.b.4XA.. ",
"X A.6Xl.Y.Y.Y.'.'.'.'.[.{.{._..X>X>X|.|.).6.4Xv.X ",
"X 0.(.,.D.m.k.E././.[.[.[.[._.|.U.N.n.W.E.~ }.<.. ",
"X ^ l.] k.m.b.~.W.Q.W.W.W.!.!.!.`.n.c.P.E.( F.Q X ",
"* D 4.B ' o.o.+.X.X.X.X.O.O.O.O.;.[ { { +.k ,.C X ",
"X C :.b A ' ' ] ( ( ( ( ( ( ( {  . .-.A ~ f ' C o ",
"* v $.C :.l.z.,.h.6.h.h.h.h.h.z.V.V.4.:.z.A :.c o ",
"- v 2.G #.E D ` ` ` ` ` ` ^ ) ) G $.$.G =.m G G X ",
". @ 3 @ t t 4 5 9 4 4 5 5 4 4 4 5 t t y 5 1 - X X ",
". F 5.3 X   . X . X . . X X X . X .   . o u 5.@.. ",
". y.&XH X . X   O . .   . X O X   O   >   @.9Xi.  ",
". H.&Xi X 2 8 O % % $ $ % % % & & 2 & r   i wXT.  ",
"  r. Xr                                   > ;Xi.  ",
"  Q T.*.3.B.w.1.7.7.r.y.y.r.r.2.8.w.i.p.Z.8.+X*.. ",
"o 9.3X3X<X<X<X,X*X*X8XOX-X=X*X2X%X1X5X5X0X0X:XZ.. ",
"X Z z.g.s.s.g.g.6.0.&.Z.9.b.6.+.f.a.f.X.j.6.z.T . ",
"X 0 N k z l k J B d =X:X:X7X' f U s s j j f C q X ",
"X 0 b j P P P J Y w OXX + *X0.j U x s ! Y b C q X ",
"+ n ^ ^ I } | I ` ' T.p . oXv.A ! ~ ~ O...R W n X ",
"  9 b g g l P N R M OXy.E T.W b h k h S f d u ; X ",
"  p W R I I | %.R E qXi.8.@X9.C | -.I %.D ) E y . ",
"  e E _ / K K _ R E H.&XH.t.&.#.S | K _ D *.#.u   ",
"  # > < < , a 7 < 0       . 1 6 7 a a < 6 : ; @ . "
};
