/* XPM */
static char *_ebf71770c3c433ea127eb8128d5907aSqReyiKTXrDEktLS[] = {
/* columns rows colors chars-per-pixel */
"32 32 230 2 ",
"   c #030202",
".  c #0C0101",
"X  c #0A0B0C",
"o  c #070907",
"O  c #140100",
"+  c #1B0301",
"@  c #150A03",
"#  c #1C0A03",
"$  c #1A0709",
"%  c #1B0A0A",
"&  c #12060A",
"*  c #0F0D10",
"=  c #140E10",
"-  c #191213",
";  c #0A1215",
":  c #230300",
">  c #2A0300",
",  c #230B03",
"<  c #2C0C02",
"1  c #230D0D",
"2  c #280B0A",
"3  c #340600",
"4  c #3B0600",
"5  c #330C02",
"6  c #3B0A00",
"7  c #370F0D",
"8  c #2A1305",
"9  c #2C130C",
"0  c #26150A",
"q  c #331206",
"w  c #32130C",
"e  c #38140A",
"r  c #3B1A0B",
"t  c #391505",
"y  c #280F13",
"u  c #2B1512",
"i  c #291B19",
"p  c #391B16",
"a  c #2D2219",
"s  c #33221C",
"d  c #3C231A",
"f  c #3B2B1E",
"g  c #2D292A",
"h  c #3D352A",
"j  c #431A08",
"k  c #471F11",
"l  c #4B250A",
"z  c #532909",
"x  c #4D2414",
"c  c #4D2A1C",
"v  c #462718",
"b  c #522C1B",
"n  c #542A14",
"m  c #56371C",
"M  c #4C3217",
"N  c #643B1F",
"B  c #6D3D1D",
"V  c #673819",
"C  c #713F1A",
"Z  c #4C2C23",
"A  c #4B2D2A",
"S  c #442826",
"D  c #5A2F21",
"F  c #522E24",
"G  c #49362B",
"H  c #563026",
"J  c #5B3326",
"K  c #573C2F",
"L  c #5B3B2A",
"P  c #58342B",
"I  c #4C2E30",
"U  c #4C3B32",
"Y  c #4B3134",
"T  c #533C35",
"R  c #5B3B33",
"E  c #593E3B",
"W  c #633525",
"Q  c #603C23",
"!  c #6B3D22",
"~  c #633D2C",
"^  c #6A3C2C",
"/  c #61372B",
"(  c #643E33",
")  c #6B3F31",
"_  c #643D38",
"`  c #703F30",
"'  c #6E411C",
"]  c #72421D",
"[  c #4F403B",
"{  c #5C4135",
"}  c #5D423C",
"|  c #58453A",
" . c #5A4029",
".. c #6B4326",
"X. c #6C4429",
"o. c #684529",
"O. c #714423",
"+. c #74452C",
"@. c #73482D",
"#. c #7A4B2B",
"$. c #794629",
"%. c #644235",
"&. c #6B4434",
"*. c #65443B",
"=. c #6A463A",
"-. c #644B3B",
";. c #6C4B3C",
":. c #734434",
">. c #754934",
",. c #724A3B",
"<. c #754834",
"1. c #7C5035",
"2. c #79532F",
"3. c #5C4B42",
"4. c #594544",
"5. c #595149",
"6. c #654B42",
"7. c #6C4D43",
"8. c #674C48",
"9. c #734D44",
"0. c #754B43",
"q. c #63524B",
"w. c #6D524B",
"e. c #6D5040",
"r. c #745245",
"t. c #72534B",
"y. c #7B594D",
"u. c #7A5648",
"i. c #674E51",
"p. c #695550",
"a. c #755855",
"s. c #796455",
"d. c #824F3C",
"f. c #956C3D",
"g. c #855C47",
"h. c #865646",
"j. c #815C53",
"k. c #865F58",
"l. c #8D6344",
"z. c #84614A",
"x. c #8B654C",
"c. c #8F684B",
"v. c #936345",
"b. c #94674B",
"n. c #946A4D",
"m. c #996B4B",
"M. c #967043",
"N. c #94714A",
"B. c #9C744C",
"V. c #876453",
"C. c #846C55",
"Z. c #8E6C52",
"A. c #896657",
"S. c #936D55",
"D. c #926D5A",
"F. c #976C56",
"G. c #957354",
"H. c #95725A",
"J. c #9C735B",
"K. c #A26D4E",
"L. c #A26C50",
"P. c #A0765E",
"I. c #896C65",
"U. c #9B7369",
"Y. c #9A7766",
"T. c #89796F",
"R. c #A57A62",
"E. c #A57D71",
"W. c #BC8B69",
"Q. c #BD926F",
"!. c #BB8973",
"~. c #BC9573",
"^. c #BB957B",
"/. c #BD9A7B",
"(. c #B59073",
"). c #C2956D",
"_. c #C49573",
"`. c #C49975",
"'. c #C3957C",
"]. c #C49B7B",
"[. c #CB9C7A",
"{. c #C89778",
"}. c #D09D7E",
"|. c #CAA17D",
" X c #D2A57E",
".X c #D5AA7E",
"XX c #928887",
"oX c #98928F",
"OX c #9B9B9D",
"+X c #BB9983",
"@X c #B89A89",
"#X c #A79799",
"$X c #AA998F",
"%X c #B7A294",
"&X c #BDA598",
"*X c #AEA3A2",
"=X c #B8A8A6",
"-X c #C39482",
";X c #C19C82",
":X c #CC9E85",
">X c #C6A285",
",X c #CBA384",
"<X c #CDAA85",
"1X c #C5A18D",
"2X c #CEA28C",
"3X c #CFAD8E",
"4X c #D2A384",
"5X c #D4AC84",
"6X c #D9AC84",
"7X c #D4A58D",
"8X c #D4AC8B",
"9X c #DAAB8A",
"0X c #DBB185",
"qX c #D5B18D",
"wX c #D9B18B",
"eX c #D6B185",
"rX c #C6A795",
"tX c #D2A791",
"yX c #D5A991",
"uX c #DCAC93",
"iX c #D0B19D",
"pX c #E0AF8E",
"aX c #E4B391",
"sX c #E8BA96",
"dX c #E3B38D",
"fX c #D8BAA7",
"gX c #CDC4BF",
"hX c #F7CFB6",
"jX c #DAC9C8",
"kX c #DED2D6",
/* pixels */
". i + O x 4 6 4 j 4 3 4 4 4 j j 4 j 4 3 3 3 3 6 j > > + # .   ; ",
"a T.s.v J N d.h.` :.` ` ` :.d.` ! ` ` ` :.:.,.>.^ ` H a.T.@   X ",
"@ $X%XA.!.'.{.!.-X-X+X-X-X'.{.{.{.'.'.-X-X-X-X-X!.:Xh.@X&XO   X ",
"@ %XrXD.7X4X7XuX7X7XtXyXuX7X9X9X7XuX9XtXtX7X:X:X'.uXx.;X&X. o   ",
"@ rX@XQ 1.! B #.@.@.@.<.@.O.] ' O.O.X.X...! N V ! #...1X&X@ @ . ",
"+ fXfXF.2XpX9X}.,X,X,X,X|.].).)._._.`.`./.].'.{.7XW.R.hXfX8 . . ",
"q iX3Xx.4XsXaX}.5X8XqXqX3XeXeX.X.X.X5X8X8X8X9X9XpX{.n.7X1X, # 9 ",
"< @X;Xm._.).)._.].|.>X<X<XeX.XeX0X6X5X5X5X8X8X8X[.sXm.].tX< + . ",
"< +X/.! $.] ' $.f.N.N.N.N.M.M.f.f.f.W.G.f.2.O.' V C #.~.;Xt O # ",
": H.R.n.9XdX X XeXqX3X3X<XeX0X0X.X.X|..X/.~.~.`.{.{.m.l.g.< , : ",
"+ z.R.S.7X9X X6XqXeX<X>X<X0XpX.X.X.X<X|./.~./.|.sX[.l.J.Y.5 : u ",
"r Y.S.<.).9X,X~.<X3X3X3X9X9X6X XeXeXqX3X|./.~.~..X[.v.g.V.8 # O ",
"w I.V.l n z z z L ..o.o.X.O.] C ' ' @.o.o.m z z z l j z.Y.< O u ",
"e =.&.>.'.:X[./.].>X>X+X'.].}. X~.|.|.|.+X+X/./.(.>Xl.L R # $ . ",
"> *.;.:.F.v.g.b.Z.G.Z.Z.n.m.L.K.v.v.c.Z.Z.Z.G.G.Z.Z.Q %.6., 1 - ",
"> 7.0.~ F.F.R.F.S.D.D.H.H.J.F.b.m.n.S.G.G.H.H.H.S.G.~ %.w.: $ & ",
"7 0.7.> 5 5 6 x x c M m M M M m l ' l M L n b x l v : t.i.2 O $ ",
": R 9.F k.U.U.E.D.A.A.C.C.C.s.C.y.J.x.x.Z.z.D.Y.j.j.d 6.E y % y ",
"2 6.7.Z 9.9.( L 9.=.%.;.-.;.;.-.-.r.-.,.,.o.~ &.9.y.S 6.E 1 $ $ ",
"O T | Z R *.;.0.;.&.%.%.%.{ R {  . . .o.,.&.&.&.( *.c w.w.1 O O ",
"# U f 0 8 < q e > > 5 q < 2 7 p 8 # # , 8 8 q t 5 5 > p A + O 1 ",
". a @ @ + : : + > > > : + O + + # O 8 8 , : + > + < : : w O + # ",
"i 3.G e.6.7.t.=.9.*.E E i.i.4.4.q.G | -.-.e.-.&.~ r.7.K } u # O ",
", | | w.%.R 7.*.7.E E I.=XkXkXjX=Xs.| [ R e.=.%.%.=.7.-.6.9 O + ",
"+ , 2 > : H H Z H A p U *Xg ; g jXs U d Z c r J b v t + w # @ + ",
", a.R *.y.0.0.( *.t.| 4.oXX o o jX5.3.w.a.=.j.x ,.&.;.7.6.u + @ ",
"+ a.=.*._ W &.u.%.} w.q.oX; X   OX[ } d { =.) h.>.~ =.} E # . % ",
"# 2 w q 3 / D b c c d s *XXX  OX*Xs q.} v b k x b x k : 9 O . . ",
"1 U t.w.F ( ) ,.0.0.A.E jX& * & XXi.S R k.) ` ` ) &.=.P T i % . ",
". 5.U | y.;.^ ~ g.D _ R jXjX#X#X$Xp.w.*.P ` h./ ` ) 0.8.4.+ . . ",
"  5.h U K c J :.) k 0._ S I Y S Y A 8.P D ,.b ` ) W _ R T % & i ",
"  o @ @ O r < > 6 6 > 3 7 > 2 y u : : e 3 > j 4 4 3 > + y . o   "
};
