/* XPM */
static char *_d39bd6b7973465ccf0ad89ad822e138IGGTmr0gfI1Duq94[] = {
/* columns rows colors chars-per-pixel */
"480 32 11 1 ",
"  c None",
". c black",
"X c #002F15",
"o c #005928",
"O c #087129",
"+ c #40AD29",
"@ c #6BD926",
"# c #A9E74E",
"$ c #C0E869",
"% c #E0E8B1",
"& c gray93",
/* pixels */
"                                                                                                                                                                                                                                                                                                                                                                                                                &                                                                               ",
"                                                                                                                                                                                                                                                                                                                                                                               &                                &                                                                               ",
"                                                                                                                                                                                                                                                                                                                                                                               &                                                                                                                ",
"                                                                                                                                                                                                                                                                                                                                                                               &&                                                                                                               ",
"                                                                                                                                                                                                                                                                                                                                                                               &&                                                                                                               ",
"                                                                                                                                                                              ......                                                                                                                                                                                                                                                                                                            ",
"                                                                                                                                              ......                         .O%%$+O.                                                                                                                                                                                    oo           oo                                                                                                        ",
"                                                                                                                                             .O%%$+O.                       .o$%%$$+o.                                                                                                                                                          &                        oo           oo                                                                                                        ",
"                                                                                                                                            .o$%%$$+o.                     .X+$$OOO++X.                                                                                                                                                     X+  &                                                                         ++                                                                    ",
"                                                                                                              ......                       .X+$$OOO++X.                    .o+oXXXXo+o.                       &&&&&&                          ......                                                                                        +o+ &   +o                     XX        XX              ++                   ++                                                                    ",
"                                                                                                             .O%%$+O.                      .o+oXXXXo+o.                    .o+XXXXXX+o.                      &&&&&&&&                        .O%%$+O.                        ........                                                       XXX && oX+                     XX        XX              ++                                                                                         ",
"              ......                                                                                        .o$%%$$+o.                     .o+XXXXXX+o.                    .o+XXXXXX+o.                      &&&&&&&&                       .o$%%$$+o.                      .O%%$$$+O.                       &&&&&&&&                        XXXXXXXX                  &&                 &&&                                                                                                   ",
"             .O%%$+O.                        ........                                                      .X+$$OOO++X.                    .o+XXXXXX+o.                    .X@+oXXo+@X.                      &&&&&&&&                      .X+$$OOO++X.                    .o$%%$$$$+o.                     &&&&&&&&&&                      @+XXXXXXoo                &&&&               &&&             o                o                                   o                                 ",
"            .o$%%$$+o.                      .O%%$$$+O.                      ..........                     .o+oXXXXo+o.                    .o+oXXXXo+o.                     .o#+oo+#o.                       &&&&&&&&                      .o+oXXXXo+o.                   .X+$$OOOOO++X.                   &&&&&&&&&&&&                    @+oo && ooX++o                                          &&                                                                                           ",
"           .X+$$OOO++X.                    .o$%%$$$$+o.                    .O%%$$$$$+O.                    .o+XXXXXX+o.                    .X@+oXXo+@X.                      .o####o.                         &&&&&&                       .X+XXXXXX+X.                   .o+oXXXXXXo+o.                   &&&&&&&&&&&&                    +Xo  &&&&XXX+o                             oooo                                  &&&                                                                 ",
"           .o+oXXXXo+o.                   .X+$$OOOOO++X.                  .o$%%$$$$$$+o.                   .o+XXXXXX+o.                     .o@####@o.                        ......                          &&&&&&                        .+XXXXXX+.                    .o+XXXXXXXX+o.                   &&&&&&&&&&&&                  o+XX&&&&&&&&Xo                                ooo                                         o                                                            ",
"           .o+XXXXXX+o.                   .o+oXXXXXXo+o.                 .X+$$OOOOOOO++X.                 .X++XXXXXX++X.                     ........                                                        &&&&&&&&                      .o+XXXXXX+o.                   .o+XXXXXXXX+o.                   &&&&&&&&&&&&                  ++XX&  &&&  Xo                ooo                                                             o                     o                                  ",
"           .X@+oXXo+@X.                   .X@+oXXXXo+@X.                 .o@+oXXXXXXo+@o.                 .o@+oXXXXo+@o.                                                                                     &&&&&&&&                      .X@+oXXo+@X.                   .X@+oXXXXo+@X.                   &&&&&&&&&&&&                    oo   &&&& oo                oo                                                                                                                       ",
"            .o@####@o.                     .o@######@o.                   .o@########@o.                   .o@######@o.                                                                                      &&&&&&&&                       .o@####@o.                     .o@######@o.                     &&&&&&&&&&                      oo  && &oo                                                                                                                                          ",
"             ........                       ..........                     ............                     ..........                                                                                        &&&&&&                         .XXXXXX.                       .XXXXXXXX.                       &&&&&&&&                           &   &                                               ++                      o                                                                   ",
"                                                                                                                                                                                                                                                                                                                                                &   &                            &                  ++                                                                                          ",
"                                                                                                                                                                                                                                                                                                                                                                                &&                                                                                                              ",
"                                                                                                                                                                                                                                                                                                                                                                                &                                                   o                        o                                  ",
"                                                                                                                                                                                                                                                                                                                                                                                                                                                                                                ",
"                                                                                                                                                                                                                                                                                                                                                                                                                                                                                                ",
"                                                                                                                                                                                                                                                                                                                                                                                                                                                                                                ",
"                                                                                                                                                                                                                                                                                                                                                                                                                  &                                                                             ",
"                                                                                                                                                                                                                                                                                                                                                                                                                  &                                                                             ",
"                                                                                                                                                                                                                                                                                                                                                                                                                                                                                                ",
"                                                                                                                                                                                                                                                                                                                                                                                                                                                                                                ",
"                                                                                                                                                                                                                                                                                                                                                                                                                                                                                                ",
"                                                                                                                                                                                                                                                                                                                                                                                                                                                                                                "
};
